<svg xmlns="http://www.w3.org/2000/svg" width="209" height="54" viewBox="0 0 209 54" version="1.1"><path d="M 42.874 9.703 C 40.760 15.836, 38.940 19.564, 38 19.688 C 37.175 19.796, 32.076 20.181, 26.669 20.542 L 16.838 21.199 25.419 27.170 C 30.138 30.454, 34 33.468, 34 33.870 C 34 34.271, 32.672 38.836, 31.048 44.014 C 29.425 49.193, 28.202 53.535, 28.332 53.665 C 28.461 53.794, 32.602 51.309, 37.533 48.143 L 46.500 42.385 55.468 48.142 C 60.400 51.307, 64.541 53.792, 64.670 53.664 C 64.798 53.535, 63.575 49.193, 61.952 44.014 C 60.328 38.836, 59 34.276, 59 33.883 C 59 33.489, 62.712 30.555, 67.250 27.363 C 71.936 24.066, 74.852 21.429, 74 21.257 C 73.175 21.091, 68.273 20.628, 63.107 20.227 L 53.714 19.500 50.296 10.022 C 48.416 4.810, 46.737 0.403, 46.563 0.230 C 46.390 0.057, 44.730 4.319, 42.874 9.703 M 81.245 19.250 C 80.247 20.497, 78.329 25.949, 79.222 25 C 79.925 24.253, 82.894 18, 82.546 18 C 82.380 18, 81.795 18.563, 81.245 19.250 M 103.370 28 C 103.370 33.775, 103.535 36.138, 103.737 33.250 C 103.939 30.363, 103.939 25.638, 103.737 22.750 C 103.535 19.863, 103.370 22.225, 103.370 28 M 143.195 20.500 C 143.215 22.150, 143.439 22.704, 143.693 21.731 C 143.947 20.758, 143.930 19.408, 143.656 18.731 C 143.382 18.054, 143.175 18.850, 143.195 20.500 M 173.370 28 C 173.370 33.775, 173.535 36.138, 173.737 33.250 C 173.939 30.363, 173.939 25.638, 173.737 22.750 C 173.535 19.863, 173.370 22.225, 173.370 28 M 187.252 21.500 C 187.263 23.700, 187.468 24.482, 187.707 23.238 C 187.946 21.994, 187.937 20.194, 187.687 19.238 C 187.437 18.282, 187.241 19.300, 187.252 21.500 M 89.031 23.500 C 89.031 24.050, 89.467 25.175, 90 26 C 90.533 26.825, 90.969 27.050, 90.969 26.500 C 90.969 25.950, 90.533 24.825, 90 24 C 89.467 23.175, 89.031 22.950, 89.031 23.500 M 151.343 30.500 C 151.346 34.900, 151.522 36.576, 151.733 34.224 C 151.945 31.872, 151.942 28.272, 151.727 26.224 C 151.512 24.176, 151.339 26.100, 151.343 30.500 M 124.872 25.750 C 123.629 27.336, 123.664 27.371, 125.250 26.128 C 126.916 24.821, 127.445 24, 126.622 24 C 126.415 24, 125.627 24.788, 124.872 25.750 M 110.158 31 C 110.158 32.375, 110.385 32.938, 110.662 32.250 C 110.940 31.563, 110.940 30.438, 110.662 29.750 C 110.385 29.063, 110.158 29.625, 110.158 31 M 187.286 33.500 C 187.294 36.250, 187.488 37.256, 187.718 35.736 C 187.947 34.216, 187.941 31.966, 187.704 30.736 C 187.467 29.506, 187.279 30.750, 187.286 33.500 M 75.600 33.100 C 74.431 35.444, 74.386 35.924, 75.418 35.068 C 76.649 34.047, 78.295 30, 77.480 30 C 77.296 30, 76.450 31.395, 75.600 33.100 M 118.564 31.707 C 118.022 33.132, 118.136 33.247, 119.124 32.267 C 119.808 31.588, 120.115 30.781, 119.807 30.474 C 119.499 30.166, 118.940 30.721, 118.564 31.707 M 127.079 31.583 C 127.127 32.748, 127.364 32.985, 127.683 32.188 C 127.972 31.466, 127.936 30.603, 127.604 30.271 C 127.272 29.939, 127.036 30.529, 127.079 31.583" stroke="none" fill="#b6e41e" fill-rule="evenodd"/><path d="M 25.466 9.858 L 22.431 19.500 11.466 20 L 0.500 20.500 8.750 26.485 C 13.287 29.777, 17 32.949, 17 33.535 C 17 34.120, 15.702 38.739, 14.115 43.799 C 12.529 48.860, 11.408 53, 11.625 53 C 11.842 53, 15.762 50.509, 20.337 47.465 C 25.308 44.156, 29.272 42.167, 30.191 42.520 C 31.283 42.939, 31.905 42.298, 32.340 40.305 C 32.677 38.762, 33.225 36.545, 33.559 35.378 C 34.071 33.589, 32.808 32.311, 25.502 27.227 L 16.838 21.199 26.478 20.476 C 32.953 19.991, 35.984 19.383, 35.706 18.627 C 35.479 18.007, 34.067 13.792, 32.568 9.260 C 31.069 4.729, 29.541 0.840, 29.171 0.619 C 28.802 0.397, 27.135 4.555, 25.466 9.858 M 81.175 18.919 C 81.395 20.978, 80.883 23.046, 80.250 22.655 C 79.838 22.400, 79.433 23.300, 79.352 24.654 C 79.271 26.009, 78.371 28.068, 77.352 29.230 C 76.333 30.393, 76.021 31.041, 76.657 30.671 C 78.285 29.723, 77.171 33.613, 75.392 35.090 C 73.298 36.827, 73.712 38, 76.418 38 C 79.492 38, 82.122 37.006, 81.540 36.064 C 81.293 35.665, 83.490 35.242, 86.421 35.123 C 90.534 34.957, 91.892 35.275, 92.368 36.518 C 92.801 37.644, 93.965 38.033, 96.243 37.814 C 98.871 37.561, 99.434 37.114, 99.158 35.500 C 98.971 34.400, 98.405 33.349, 97.902 33.165 C 97.399 32.980, 97.241 32.418, 97.552 31.916 C 98.265 30.763, 95.552 26.782, 94.660 27.673 C 94.297 28.036, 93.948 27.246, 93.885 25.917 C 93.550 18.915, 92.556 17.875, 86.432 18.123 C 83.506 18.241, 81.141 18.599, 81.175 18.919 M 104 28.085 L 104 38.170 112.750 37.917 C 117.563 37.777, 122.063 37.234, 122.750 36.709 C 123.438 36.185, 124 36.051, 124 36.413 C 124 36.774, 124.856 36.612, 125.902 36.052 C 127.330 35.288, 127.723 34.166, 127.480 31.548 C 127.081 27.253, 126.225 25.756, 124.681 26.656 C 124.031 27.034, 124.287 26.444, 125.250 25.343 C 127.466 22.810, 127.451 21.718, 125.171 19.655 C 123.735 18.355, 121.267 18, 113.671 18 L 104 18 104 28.085 M 132 28 L 132 38 136 38 L 140 38 140 28 L 140 18 136 18 L 132 18 132 28 M 144 20.500 C 144 22.750, 144.400 23, 148 23 L 152 23 152 30.500 L 152 38 155.456 38 L 158.912 38 159.206 30.750 L 159.500 23.500 164.250 23.195 C 168.539 22.920, 169 22.653, 169 20.445 L 169 18 156.500 18 L 144 18 144 20.500 M 174 28 L 174 38 176.500 38 C 178.796 38, 179 37.633, 179 33.500 L 179 29 183.500 29 L 188 29 188 33.500 L 188 38 192.536 38 L 197.072 38 196.786 28.250 L 196.500 18.500 192.250 18.193 L 188 17.885 188 21.443 C 188 24.992, 187.990 25, 183.500 25 C 179.024 25, 179 24.981, 179 21.500 C 179 18.433, 178.690 18, 176.500 18 L 174 18 174 28 M 89 24.059 C 89 24.641, 88.555 24.843, 88.011 24.507 C 87.424 24.144, 87.290 24.593, 87.681 25.612 C 88.128 26.776, 87.964 27.096, 87.170 26.605 C 86.468 26.171, 86 26.505, 86 27.441 C 86 28.500, 86.945 29, 88.948 29 C 91.789 29, 91.858 28.891, 90.850 26 C 89.790 22.959, 89 22.130, 89 24.059 M 112 24 C 112 24.550, 113.350 25, 115 25 C 116.650 25, 118 24.550, 118 24 C 118 23.450, 116.650 23, 115 23 C 113.350 23, 112 23.450, 112 24 M 110.158 31 C 110.158 32.375, 110.385 32.938, 110.662 32.250 C 110.940 31.563, 110.940 30.438, 110.662 29.750 C 110.385 29.063, 110.158 29.625, 110.158 31 M 112 31.067 C 112 32.848, 112.511 33.085, 115.680 32.776 C 119.925 32.363, 121.151 30.541, 117.791 29.641 C 113.584 28.514, 112 28.904, 112 31.067 M 41.015 45.954 C 39.648 47.004, 38.748 48.040, 39.015 48.255 C 40.786 49.687, 45.903 53, 46.344 53 C 46.638 53, 46.189 50.975, 45.345 48.500 C 44.502 46.025, 43.742 44.010, 43.656 44.022 C 43.570 44.034, 42.382 44.904, 41.015 45.954" stroke="none" fill="#c4c6c3" fill-rule="evenodd"/></svg>